<svg width="105" height="115" viewBox="0 0 105 115" fill="none" xmlns="http://www.w3.org/2000/svg">
<path d="M99.2004 82.64C89.3804 75.31 79.1903 74.23 68.6603 80.7C63.7103 83.74 60.3997 88.24 58.5197 93.76C56.6597 99.22 56.7695 104.69 58.5695 110.18C45.6895 107.22 33.9095 93.53 35.3595 76.7C36.9395 58.3 53.1699 44.75 72.2599 47.8C92.6999 51.07 101.26 71.02 99.2004 82.63V82.64Z" fill="#1F99CB"/>
<path d="M44.5996 4.85998C47.7096 4.41998 50.9401 4.59002 53.8701 3.15002C54.8801 2.65002 55.6399 1.94999 55.9199 0.799986C55.9999 0.469986 56.1301 0.0200152 56.5801 0.0800152C57.1001 0.150015 57.0793 0.629966 57.0693 1.02997C57.0193 3.16997 55.8198 4.63002 54.0498 5.58002C53.0898 6.09002 53.0195 6.64 53.2695 7.56C54.1995 10.87 55.82 13.91 57 17.12C57.3 17.94 57.5202 18.79 57.7402 19.64C57.8102 19.9 57.8303 20.22 57.5303 20.39C57.2103 20.56 57.0093 20.32 56.8193 20.12C55.6893 18.96 54.95 17.54 54.21 16.14C53.52 14.85 52.8794 13.53 52.1094 12.04C51.4294 13.41 51.2294 14.71 50.8594 15.95C50.5394 17.02 50.31 18.11 49.75 19.09C49.57 19.4 49.3202 19.75 48.9102 19.61C48.5102 19.48 48.6795 19.06 48.6895 18.77C48.8695 14.99 49.0702 11.2 49.2402 7.41998C49.2702 6.82998 49.6201 5.99002 48.8701 5.71002C48.0501 5.40002 47.1093 5.54999 46.3193 5.98999C45.8093 6.26999 46.0496 6.88001 46.0996 7.32001C46.4596 10.46 46.45 13.61 46.29 16.76C46.25 17.64 46.1293 18.51 46.0693 19.38C46.0393 19.78 45.9095 20.15 45.4795 20.14C45.0395 20.14 44.9499 19.7 44.9199 19.34C44.8099 17.79 44.7294 16.24 44.6094 14.69C44.5694 14.12 44.4303 13.55 44.2803 12.65C43.3603 15.28 42.3694 17.51 40.1494 19.16C39.8994 18.17 40.3294 17.48 40.6094 16.79C41.6794 14.16 42.5096 11.47 42.8496 8.64001C43.0396 7.01001 43.08 7.25001 41.5 7.39001C39.61 7.55001 39.5194 8.68001 39.3594 10.07C38.9994 13.17 38.0793 16.13 36.8193 18.99C36.6693 19.33 36.5798 19.89 36.0498 19.71C35.4698 19.52 35.8497 19.05 35.9297 18.7C36.2697 17.27 36.7795 15.88 36.6895 14.14C35.5195 15.19 34.4598 16.12 33.2598 16.86C32.9298 17.06 32.5797 17.68 32.1797 17.21C31.9097 16.89 32.4199 16.53 32.6899 16.24C34.5799 14.15 36.1694 11.88 36.8994 8.96997C34.6094 9.38997 32.3698 9.76002 30.3398 8.15002C30.5298 7.97002 30.6096 7.85999 30.6396 7.86999C34.5196 9.10999 37.8699 7.06002 41.3799 6.09002C42.4699 5.79002 43.6996 5.72 44.5996 4.88L44.5801 4.90002L44.5996 4.85998Z" fill="#229ACC"/>
<path d="M29.51 86.92C28.18 83.39 24.9398 81.44 22.8498 78.58C22.6598 78.32 22.4502 78.08 22.2302 77.85C20.2902 75.92 19.64 73.54 19.78 70.88C19.9 68.41 20.1201 65.96 20.6301 63.54C20.9001 62.26 21.17 62.06 22.32 62.65C25.4 64.24 27.9699 66.49 30.1999 69.12C30.5999 69.59 30.53 70.17 30.51 70.72C30.42 74.79 29.8401 78.8 29.1901 82.81C28.9601 84.23 29.0602 85.55 29.5002 86.91L29.51 86.92Z" fill="#2099CB"/>
<path d="M3.29005 66.14C4.19005 67.75 5.30958 69.17 6.55958 70.46C7.16958 71.09 7.3999 71.52 6.6299 72.13C6.4599 72.27 6.38978 72.54 6.25978 72.74C5.42978 74.04 4.83982 74.13 3.29982 73.04C4.49982 73.27 4.39968 72.76 4.15968 72.02C3.26968 69.25 2.2399 66.54 1.1299 63.85C0.969896 63.47 0.379779 62.83 1.50978 62.86C1.63978 62.86 1.80992 62.52 1.89992 62.3C2.62992 60.62 3.07982 58.84 3.54982 57.07C3.66982 56.63 3.28976 56.44 3.23976 56.05C4.64976 56.02 5.88972 56.65 7.19972 56.92C8.20972 57.13 9.21976 57.4 10.2398 57.56C11.5298 57.77 11.5397 57.73 11.4697 56.45C11.9797 56.54 12.2598 56.92 12.2798 57.36C12.4498 60.62 13.5798 63.66 14.3198 66.79C14.6798 68.33 14.4497 68.7 12.9697 69.3C11.5197 69.89 9.85999 69.52 8.47999 70.41C8.16999 70.61 7.94976 70.13 7.73976 69.93C6.45976 68.72 5.20972 67.5 3.94972 66.28C3.80972 66.15 3.67982 65.99 3.29982 66.13L3.29005 66.14ZM3.19972 65.63C3.11972 65.58 3.03997 65.54 2.95997 65.49C2.97997 65.59 2.98978 65.69 3.00978 65.78C3.09978 65.87 3.1696 66.06 3.3296 65.92C3.4996 65.77 3.29972 65.7 3.19972 65.62V65.63ZM2.59962 63.44C4.24962 64.95 10.9699 67.24 12.3599 66.89C9.03988 65.72 5.81962 64.58 2.59962 63.44Z" fill="#2199CC"/>
<path d="M63.2402 88.57C59.1202 99.09 67.3597 109.68 78.7597 109.16C76.2197 110.21 73.8201 110.93 71.3701 111.35C68.1701 111.91 64.9502 111.88 61.7402 111.2C61.0702 111.06 60.6994 110.75 60.4794 110.12C57.8294 102.55 58.67 95.4 63.04 88.67C63.07 88.62 63.1594 88.6 63.2294 88.57H63.2402Z" fill="#2199CC"/>
<path d="M33.6195 43.89C33.2995 42.23 32.9896 40.67 32.6796 39.11C32.4996 38.22 32.7096 37.52 33.4296 36.88C35.3096 35.21 37.2099 33.57 39.2499 32.1C39.7999 31.7 40.2693 31.64 40.8993 31.88C42.6393 32.52 44.4095 33.1 46.3895 33.77C44.7195 34.83 45.6298 35.6 46.4198 36.42C47.3598 37.4 48.22 38.45 49.16 39.43C49.63 39.92 49.6499 40.19 49.0399 40.59C45.9399 42.62 42.8398 44.67 40.3798 47.5C39.9198 48.03 39.6199 47.73 39.3299 47.4C38.4599 46.41 37.6096 45.41 36.7596 44.4C35.8663 43.34 34.8195 43.17 33.6195 43.89ZM38.3993 40.54C37.7793 40.25 37.4992 40.8 37.1092 41.06C36.5592 41.43 36.7092 41.78 37.0692 42.22C37.4592 42.7 37.7098 42.66 38.2098 42.31C38.8498 41.86 38.7998 41.36 38.6298 40.76C39.0598 41.17 39.5397 41.31 40.0897 41C39.8097 41.45 39.48 41.89 40.12 42.34C40.29 42.46 40.4697 42.67 40.3397 42.94C40.0297 42.91 39.8698 42.66 39.7098 42.45C39.0398 41.58 38.7392 42.52 38.3192 42.74C37.7792 43.02 38.0595 43.33 38.3495 43.66C39.0895 44.49 39.5199 44.34 40.3299 42.92C41.0699 42.87 41.6794 42.39 41.7294 41.77C41.7794 41.21 41.2594 40.66 40.5594 40.53C40.4294 39.89 40.1099 39.18 39.4999 39.22C39.0199 39.25 38.3498 39.74 38.4198 40.53L38.3993 40.54ZM44.1893 35.76C44.0493 35.84 43.9395 35.88 43.8495 35.95C43.0795 36.58 42.05 37.09 41.66 37.9C41.4 38.45 42.4998 39.1 42.9598 39.73C43.1898 40.05 43.4596 40.35 43.7196 40.65C44.6129 41.7034 45.6294 41.87 46.7694 41.15C46.9994 41 47.2399 40.85 47.4999 40.74C48.1399 40.48 48.0896 40.14 47.6796 39.68C46.6796 38.54 45.6998 37.39 44.7098 36.24C44.5598 36.06 44.3701 35.92 44.2001 35.75L44.1893 35.76Z" fill="#229ACC"/>
<path d="M80.8094 19.71C80.9994 19.17 80.4701 19.18 80.2401 19.04C77.8101 17.68 75.3994 16.28 72.7294 15.43C72.0694 15.22 72.0496 14.86 72.1796 14.36C72.4796 13.23 73.0597 12.23 73.7997 11.33C75.3097 9.49001 77.1799 8.08998 79.2499 6.92998C79.6299 6.71998 79.9197 6.63999 80.3397 6.86999C83.8697 8.75999 87.1496 10.97 90.0096 13.8C90.6896 14.47 90.7501 15.01 90.0301 15.66C89.3801 16.25 88.8398 16.97 88.1298 17.46C86.5598 18.53 85.0898 19.65 84.6298 21.62C83.7198 21.27 83.1494 20.49 82.2294 20.41C81.8794 19.91 81.4902 19.47 80.7802 19.7H80.7997L80.8094 19.71ZM79.2001 16.43C79.5401 16.54 79.6296 16.25 79.7596 16.07C80.1396 15.56 80.45 14.99 80.87 14.52C81.23 14.12 81.2194 13.89 80.7694 13.61C79.9194 13.09 79.0999 12.53 78.2499 12.01C77.6599 11.64 77.03 11.37 76.37 11.89C75.66 12.46 75.2097 13.2 75.0497 14.1C75.0297 14.23 75.1196 14.46 75.2196 14.51C76.5396 15.17 77.8701 15.8 79.2001 16.43ZM87.91 13.53C87.58 12.97 87.2494 13.29 87.0194 13.51C86.1194 14.35 85.23 15.21 84.37 16.09C83.72 16.75 83.2695 17.54 82.8495 18.36C82.7495 18.56 82.7393 18.76 82.9393 18.88C83.1493 19 83.3298 18.88 83.4198 18.68C84.3598 16.67 86.0198 15.3 87.6298 13.87C87.7398 13.77 87.8198 13.64 87.9198 13.53H87.91ZM81.2294 17.5C81.3294 17.41 81.4399 17.35 81.4999 17.26C82.7399 15.49 84.1899 13.92 85.9999 12.7C86.1599 12.59 86.2795 12.41 86.0995 12.2C85.9195 12.01 85.7392 12.1 85.5692 12.22C83.7592 13.49 82.2396 15.05 81.0096 16.89C80.9396 17 80.9193 17.18 80.9393 17.32C80.9493 17.39 81.1096 17.44 81.2196 17.51L81.2294 17.5ZM78.2499 10.65C79.0799 9.92002 79.8996 9.19 80.7196 8.45C80.7596 8.41 80.7198 8.21002 80.6698 8.15002C80.6098 8.09002 80.44 8.04001 80.37 8.08001C79.44 8.63001 78.7098 9.40996 77.9598 10.16C77.8998 10.22 77.8798 10.4 77.9198 10.48C77.9598 10.56 78.1099 10.58 78.2499 10.65ZM83.9901 10.97C83.8801 10.63 83.6801 10.6 83.4501 10.79C83.1801 11.01 82.89 11.24 82.66 11.51C82.31 11.94 81.3997 12.45 81.7997 12.83C82.3297 13.32 82.6194 12.29 83.0594 11.98C83.4194 11.72 83.8301 11.43 83.9901 10.97ZM82.0194 9.45C81.7094 9.48 80.1 11.09 80.08 11.35C80.08 11.45 80.1096 11.59 80.1796 11.66C80.3196 11.79 80.4697 11.72 80.5897 11.6C81.1197 11.07 81.65 10.55 82.16 10.01C82.24 9.92 82.2494 9.73002 82.2294 9.59002C82.2194 9.52002 82.0596 9.47999 82.0096 9.43999L82.0194 9.45Z" fill="#229ACC"/>
<path d="M59.91 20.92C59.81 21.93 60.1293 22.44 61.2293 22.2C61.9693 22.04 62.3696 22.68 62.7596 23.17C64.5696 25.49 65.4392 28.22 65.9392 31.06C66.5792 34.73 66.6799 34.06 63.3299 34.81C62.0899 35.09 60.8096 35.22 59.5896 35.59C58.4196 35.95 57.6996 35.57 57.3396 34.52C56.9696 33.44 56.2697 33.06 55.1697 32.9C53.1197 32.6 52.5298 31.21 53.7898 29.6C54.4898 28.71 54.7 27.95 54.24 26.94C54.07 26.56 54.0392 26.09 54.3992 25.71C55.9792 24.02 57.59 22.37 59.49 21.02C59.57 20.96 59.7095 20.97 59.9295 20.92H59.91ZM57.99 26.18C58.56 26.04 58.7893 26.4 58.9793 26.83C59.8293 28.67 60.4991 30.58 61.0691 32.53C61.2691 33.22 61.0094 33.59 60.3894 33.81C59.7494 34.03 59.1193 34.25 58.4793 34.48C58.2793 34.55 58.0895 34.68 58.2195 34.91C58.2695 35.01 58.5097 35.09 58.6297 35.06C59.7497 34.78 60.8296 34.38 61.7996 33.73C62.1796 33.47 62.04 33.13 61.95 32.77C61.48 30.96 60.8097 29.21 60.1297 27.48C59.2197 25.14 59.2098 25.15 56.7898 25.99C56.2698 26.17 55.72 26.31 55.2 26.48C54.98 26.55 54.6693 26.6 54.7293 26.9C54.8093 27.31 55.18 27.16 55.41 27.09C56.28 26.81 57.1398 26.49 57.9998 26.19L57.99 26.18ZM55.6394 32.31C55.8294 32.31 56.2595 32.4 56.1795 32.13C55.9495 31.3 55.5998 30.51 55.2498 29.72C55.1198 29.43 54.87 29.53 54.66 29.71C54.63 29.74 54.5991 29.76 54.5691 29.79C54.1391 30.21 53.6392 30.64 53.8592 31.3C54.1192 32.1 54.9294 32.14 55.6394 32.32V32.31ZM55.0496 25.61C55.0996 25.72 55.15 25.82 55.2 25.93C57.24 24.95 59.3998 24.21 61.2098 22.75C59.1598 23.71 57.0996 24.66 55.0496 25.62V25.61Z" fill="#229ACC"/>
<path d="M13.2998 32.85C13.2098 32.85 12.8596 32.89 12.5796 32.78C11.8996 32.51 11.6098 32.84 11.2598 33.37C10.1198 35.05 8.89972 36.68 7.71972 38.33C7.36972 38.82 7.06004 39.27 7.54004 39.93C8.03004 40.6 7.53992 40.93 6.91992 40.86C5.89992 40.75 5.01957 40.2 4.30957 39.51C3.73957 38.96 4.18978 38.49 4.77978 38.45C5.40978 38.41 5.6597 38.07 5.9497 37.62C7.0997 35.85 8.29961 34.12 9.34961 32.28C9.74961 31.59 9.74967 31.04 9.40967 30.3C8.47967 28.28 8.71967 26.31 10.1597 24.61C11.4097 23.13 13.0397 22.48 14.9697 22.93C17.2997 23.47 18.8796 25.7 18.6196 27.99C18.2796 30.92 16.27 32.8201 13.29 32.8401L13.2998 32.85ZM13.3799 24.22C13.2099 23.72 12.88 23.82 12.54 24C11.34 24.64 10.5199 25.64 9.8999 26.81C9.7399 27.11 9.56974 27.54 9.98974 27.76C10.4897 28.02 10.7498 27.6 10.8398 27.22C11.0898 26.11 11.9098 25.52 12.7598 24.93C13.0198 24.75 13.2699 24.56 13.3799 24.22Z" fill="#2199CC"/>
<path d="M13.0597 52.56C12.9197 51.41 13.2601 50.45 13.7101 49.52C15.8001 45.16 21.25 43.48 24.86 46.07C27.82 48.19 28.9001 53.47 27.0201 56.56C26.8601 56.83 26.7097 57.18 26.3297 57.13C25.9697 57.09 25.8301 56.76 25.7101 56.46C25.3501 55.53 24.9501 54.62 24.4401 53.77C22.7301 50.93 20.01 49.9 16.86 50.99C15.59 51.43 14.3799 52 13.0699 52.55L13.0597 52.56Z" fill="#2099CB"/>
<path d="M48.9204 30.99C48.0504 31.02 47.29 30.5 46.56 29.94C46.16 29.63 45.83 29.46 45.27 29.58C44.12 29.84 43.3103 29.2 43.6303 28.13C44.0003 26.93 43.48 26.08 43.1 25.11C42.71 24.11 42.3507 23.1 42.0307 22.08C41.8807 21.6 41.8306 21.11 42.6206 21.14C44.7406 21.24 46.8103 20.85 48.8803 20.41C50.4503 20.07 50.9106 20.41 51.3706 22.01C51.5806 22.74 51.7804 23.28 52.6704 23.61C53.6504 23.98 53.4704 25.11 52.9204 25.75C52.1204 26.68 51.92 27.77 51.56 28.84C51.09 30.27 50.2104 31 48.9204 30.98V30.99ZM44.3803 27.51C44.0403 27.98 44.1007 28.32 44.2407 28.64C44.3907 28.99 44.7005 29.17 45.0805 29.2C45.1805 29.2 45.3601 29.16 45.3901 29.09C45.5601 28.7 45.1404 28.58 45.0004 28.33C44.8504 28.07 44.6403 27.84 44.3803 27.51ZM52.0698 26.19C52.9798 24.86 52.9598 24.56 52.0698 24.06V26.19Z" fill="#FD7C41"/>
<path d="M22.8598 29.12C20.4898 30.43 18.6195 34.72 19.0595 37.65C19.3095 39.27 19.5696 40.8899 19.4096 42.5299C19.2596 44.1199 18.8997 44.42 17.3397 44.15C14.5697 43.68 12.2596 42.33 10.4096 40.23C9.55957 39.26 9.64961 38.7599 10.6996 37.9699C12.0196 36.9799 13.5397 36.35 15.0497 35.75C16.1097 35.32 16.8795 34.6799 17.3695 33.6599C18.0295 32.2999 18.7396 30.96 19.4096 29.61C19.5696 29.29 19.7596 28.91 19.7196 28.59C19.5196 27.17 20.2496 27.5 20.9696 27.9C21.5896 28.24 22.2598 28.52 22.8598 29.13V29.12ZM15.5497 36.74C13.7997 36.96 12.4398 37.83 11.4198 39.25C12.9898 38.74 14.4197 38.02 15.5497 36.74Z" fill="#229ACC"/>
<path d="M88.1702 33.39C91.0702 34.51 93.8598 35.82 96.5598 37.35C98.9898 38.74 101.25 40.33 103.21 42.38C104.91 44.16 104.15 46.18 104.07 48.15C104.05 48.51 103.75 48.41 103.52 48.37C102.74 48.21 101.96 48.05 101.18 47.88C100.77 47.79 100.48 47.58 100.29 47.18C97.8803 42.14 93.9102 38.58 89.2102 35.78C88.2002 35.18 87.8499 34.57 88.1799 33.39H88.1702Z" fill="#2199CC"/>
<path d="M63.7801 5.34004C64.0901 5.70004 64.2597 5.32003 64.4597 5.20003C65.9697 4.26003 67.7593 4.47999 69.0193 5.71999C69.4493 6.14999 69.6199 6.65999 69.6199 7.21999C69.6199 7.82999 69.2699 7.85003 68.8299 7.57003C68.6499 7.12003 68.3594 7.6 68.1394 7.48C68.0194 7.53 67.8299 7.51 67.8699 7.73H67.8894C65.7394 7.67 63.7597 8.15004 62.1297 9.65004L62.1492 9.63002C61.9992 9.66002 61.7895 9.64 61.7195 9.73C60.5295 11.38 58.8701 11.09 57.2801 10.73C55.3401 10.3 54.5298 8.59002 55.2498 6.75002C55.3698 6.45002 55.5399 6.14003 55.8699 6.07003C57.2399 5.78003 58.0994 4.76 59.0994 3.92C59.7994 3.33 60.5093 2.75002 61.5593 3.13002C62.0693 3.32002 62.1892 3.55002 61.8992 4.00002H61.8894C61.7194 4.21002 61.5099 4.39001 61.3699 4.62001C61.1199 5.05001 61.0394 5.51003 61.3494 5.95003C61.6994 6.43003 62.2093 6.44004 62.7293 6.33004C63.3993 6.19004 63.6296 5.96003 63.7996 5.32003H63.7898L63.7801 5.34004Z" fill="#FD7C41"/>
<path d="M15.5498 84.89C16.2398 87.24 18.0697 88.59 19.9697 89.87C20.5197 90.24 21.1299 90.54 21.6699 90.97C18.8199 90.6 15.9998 90.17 14.0098 87.74C13.3898 86.99 13.02 86.1 12.98 85.11C12.89 83.07 12.6199 81.07 11.8999 78.98C14.6099 79.4 16.8296 80.44 18.6196 82.41C20.4096 84.37 20.2698 87.07 21.5298 89.54C18.8898 88.48 17.2598 86.67 15.7598 84.72C15.6698 84.65 15.64 84.4 15.48 84.51C15.37 84.59 15.4296 84.78 15.5596 84.89H15.5498Z" fill="#229ACC"/>
<path d="M59.2296 17.0299C59.2096 14.2199 61.3395 12.37 64.1095 12.95C65.2695 13.19 66.3704 13.19 67.4904 12.95C67.9404 12.86 68.1503 12.39 68.4103 12.05C70.2103 9.65996 71.8797 7.18998 73.3097 4.56998C73.7497 3.74998 74.3103 3.23998 75.2003 3.68998C76.2003 4.19998 76.0001 5.00997 75.5001 5.80997C73.7901 8.58997 71.74 11.14 69.84 13.79C68.87 15.14 67.8999 16.4699 67.4699 18.1599C66.9499 20.2099 64.9195 21.4 62.8595 21.09C60.6495 20.76 59.2496 19.1799 59.2296 17.0299ZM63.4796 20.01C65.3296 20.02 66.5595 18.83 66.6095 16.99C66.6595 15.1 65.3198 13.88 63.1798 13.87C61.5098 13.87 60.1803 15.2599 60.1603 17.0299C60.1503 18.7699 61.5099 19.99 63.4699 20.01H63.4796Z" fill="#269BCD"/>
<path d="M3.09952 51.73C3.21952 50.44 3.30957 49.39 3.40957 48.33C3.44957 47.88 3.51956 47.36 4.13956 47.47C4.70956 47.58 4.46985 48.09 4.43985 48.46C4.37985 49.3 4.34967 50.13 4.25967 50.96C4.19967 51.57 4.30993 51.95 5.01993 52.03C5.76993 52.12 5.65961 51.54 5.69961 51.18C5.83961 49.51 5.94969 47.84 6.02969 46.17C6.05969 45.54 4.63956 44.95 3.63956 45.14C2.65956 45.33 1.82969 44.69 2.02969 43.86C2.12969 43.43 2.35952 43.02 2.84952 42.92C3.39952 42.8 3.85963 42.92 4.21963 43.41C4.75963 44.15 7.92963 45.35 8.71963 45.03C9.43963 44.74 9.22995 44.06 9.03995 43.51C8.93995 43.22 8.65985 42.98 8.68985 42.64C8.73985 42.13 8.97989 41.72 9.47989 41.54C9.96989 41.35 10.4497 41.46 10.7797 41.86C11.1097 42.25 11.1996 42.73 10.9296 43.2C10.8196 43.4 10.5799 43.53 10.4599 43.73C10.1799 44.22 9.90963 44.82 10.2196 45.3C10.4796 45.7 11.0897 45.66 11.5497 45.51C12.3197 45.26 12.9198 45.42 13.1898 46.21C13.3798 46.78 13.2498 47.36 12.6298 47.62C11.9598 47.9 11.4099 47.74 11.0199 47.06C10.7599 46.61 7.84954 45.81 7.36954 46.01C6.81954 46.25 7.06991 46.76 6.99991 47.16C6.92991 47.62 7.08977 47.88 7.60977 47.98C8.66977 48.18 9.70991 48.44 10.7499 48.71C11.1099 48.8 11.6399 48.89 11.4599 49.45C11.2999 49.95 10.8796 49.9 10.4696 49.72C9.89963 49.47 9.57973 49.59 9.56973 50.29C9.53973 51.58 9.09955 52.86 9.63955 54.16C9.86955 54.7 9.63993 55.28 9.01993 55.54C8.48993 55.75 7.98954 55.68 7.61954 55.2C7.21954 54.69 7.23959 54.14 7.67959 53.68C8.85959 52.46 8.33963 50.91 8.46963 49.5C8.51963 48.99 7.70969 49.05 7.27969 48.97C6.80969 48.89 6.88952 49.36 6.84952 49.65C6.73952 50.6 6.60995 51.55 6.53995 52.5C6.46995 53.37 5.97971 53.46 5.29971 53.24C4.16971 52.88 3.06954 52.41 1.86954 53.09C1.39954 53.36 0.909575 52.99 0.659575 52.57C0.369575 52.1 0.389692 51.58 0.779692 51.13C1.18969 50.68 1.70961 50.66 2.19961 50.89C2.46961 51.02 2.66952 51.3 3.09952 51.71V51.73Z" fill="#FC7D44"/>
<path d="M48.54 110.8C48.59 110.99 48.6595 111.18 48.6895 111.38C48.7795 111.94 49.2595 112.59 48.6895 113.05C48.0695 113.55 47.38 113.14 46.79 112.85C45.61 112.25 44.8399 111.23 44.1699 110.13C43.4199 108.91 42.7002 107.67 41.9502 106.45C41.8502 106.28 41.7 106.15 41.5 105.92C41.08 106.33 40.9496 107.2 40.1396 106.93C39.3896 106.68 39.0196 106.07 38.8496 105.34C38.7596 104.95 38.7301 104.48 38.1201 104.86C38.0101 104.93 37.7599 104.94 37.6699 104.86C36.1899 103.61 34.7197 102.35 33.9297 100.19C34.7897 100.58 34.9896 101.21 35.3496 101.68C35.7896 102.25 36.1497 102.88 36.7197 103.32C37.1997 103.7 37.6295 103.83 38.1895 103.32C39.0795 102.52 39.3299 102.64 39.6299 103.85C39.6899 104.08 39.7401 104.32 39.8301 104.54C40.0001 104.97 39.99 105.6 40.54 105.68C41.02 105.75 41.0295 105.14 41.2695 104.84C41.9895 103.95 42.7801 103.88 43.5801 104.76C44.5101 105.78 44.9296 107.08 45.3896 108.36C45.6696 109.15 45.9893 109.92 46.3193 110.68C46.4193 110.92 46.5799 111.25 46.9199 111.12C47.1799 111.02 47.0898 110.71 47.0498 110.48C46.9798 110.05 46.86 109.63 46.79 109.2C46.74 108.87 46.3495 108.55 46.7295 108.22C47.0695 107.93 47.4801 108 47.8701 108.12C48.7301 108.38 49.4696 108.84 50.0996 109.46C50.4996 109.85 50.8502 110.28 51.2402 110.69C51.6302 111.11 51.9302 111.92 52.6602 111C52.7502 110.89 53.1995 111 53.4395 111.1C55.5295 111.94 57.44 113.2 59.71 113.62C58.29 113.95 56.9802 113.69 55.7402 113.01C54.8702 112.53 54.1195 112.14 53.7295 113.63C53.5095 114.46 52.7194 114.22 52.1494 113.8C50.8894 112.88 49.8095 111.76 48.7695 110.61C48.6895 110.57 48.5995 110.52 48.5195 110.48L48.5498 110.8H48.54Z" fill="#FC7D44"/>
<path d="M32.7501 31.58C34.9801 31.6 35.3299 32.1 34.5099 34C34.2699 34.56 34.2499 35.7 33.0499 34.94C32.9499 34.87 32.59 35.19 32.36 35.34C31.5 35.92 30.6399 36.5 29.7999 37.1C29.0599 37.63 28.4597 37.59 28.1197 36.67C27.7897 35.79 27.2801 35.63 26.4801 36.13C25.9801 36.45 25.4297 36.69 24.8897 36.96C24.2197 37.29 23.7698 37.65 24.1998 38.52C24.4998 39.13 24.0901 39.4 23.4801 39.34C22.5101 39.26 21.6199 38.9 20.7599 38.48C20.5999 38.4 20.44 38.23 20.38 38.06C20.22 37.6 21.73 34.92 22.19 34.8C22.43 34.74 22.62 34.85 22.67 35.04C22.98 36.05 23.5397 35.64 24.1197 35.33C26.8897 33.86 26.9 33.81 25.15 31.11C24.26 29.73 24.2897 29.57 25.3897 28.98C26.1997 28.55 26.7397 28.58 27.1197 29.58C27.6697 31.03 28.3701 32.42 28.9801 33.85C29.3001 34.6 29.7397 34.73 30.3297 34.16C30.8997 33.61 32.2101 33.39 31.2101 32.12C31.0201 31.88 31.2999 31.7 31.5699 31.67C32.0099 31.63 32.4401 31.59 32.7101 31.57L32.7501 31.58Z" fill="#FD7C41"/>
<path d="M82.2404 20.41C82.3504 20.79 84.2803 22.5 84.6203 22.53C84.9003 22.56 84.9601 22.35 85.0001 22.17C85.5701 20.12 87.1999 19.02 88.7999 17.88C89.2499 17.56 89.6497 17.16 90.0997 16.84C90.4197 16.61 90.4397 15.91 91.0597 16.17C91.6497 16.42 92.1899 16.79 92.5499 17.33C92.7799 17.67 92.4596 17.92 92.2296 18.14C91.5696 18.8 90.7703 19.27 89.9503 19.65C87.8203 20.63 86.2698 22.15 85.3898 24.33C85.0298 25.24 84.6403 25.18 83.9103 24.68C80.1303 22.08 76.29 19.57 71.84 18.23C71 17.98 71.3101 17.45 71.4601 17.03C71.6801 16.39 71.9603 15.77 72.9103 16.09C75.3703 16.93 77.6996 18.05 79.9396 19.35C80.2096 19.51 80.4399 19.77 80.7999 19.7L80.7804 19.69C81.1704 20.12 81.4996 20.68 82.2296 20.41H82.2404Z" fill="#229ACC"/>
<path d="M18.7502 65.67C19.6302 65.49 19.8001 65.87 19.6501 66.65C19.4301 67.74 19.2901 68.85 19.1301 69.95C18.6801 72.9 19.3399 75.56 21.1999 77.91C22.1399 79.1 23.16 80.22 24.24 81.28C24.55 81.58 25.3602 81.69 25.0002 82.38C24.6702 83.01 23.2299 83.24 22.6599 82.85C17.3999 79.22 15.1799 72.55 17.1599 66.5C17.4599 65.58 18.15 65.76 18.76 65.67H18.7502Z" fill="#2199CC"/>
<path d="M21.9495 59.35C20.5295 59.07 19.6195 59.51 19.1795 61C18.9495 61.79 18.5697 63.08 17.7097 62.93C16.7497 62.76 17.1296 61.46 17.0696 60.64C16.9796 59.61 16.5798 59 15.4798 59.02C15.1998 59.02 14.9197 59.02 14.6497 58.97C14.3297 58.92 14.0094 58.84 13.9094 58.47C13.8194 58.14 14.0896 57.97 14.2796 57.78C14.3096 57.75 14.3394 57.72 14.3694 57.71C16.1994 56.84 17.1398 55.55 16.4798 53.44C16.3998 53.2 16.4595 52.85 16.7195 52.68C17.0695 52.45 17.3096 52.77 17.5496 52.94C17.8496 53.14 18.1397 53.35 18.3997 53.59C19.1597 54.27 19.9197 54.41 20.7097 53.65C20.8497 53.51 21.0297 53.39 21.2097 53.32C21.5197 53.2 21.8597 52.88 22.1897 53.19C22.4897 53.47 22.3595 53.87 22.2595 54.21C22.1695 54.55 22.0397 54.89 21.8797 55.21C21.4297 56.08 21.6598 56.73 22.4798 57.22C22.5098 57.24 22.5494 57.26 22.5794 57.29C23.1394 57.77 24.0893 58.22 23.8093 59C23.5793 59.65 22.5795 59.19 21.9495 59.37V59.35Z" fill="#FD7C41"/>
<path d="M26.5898 91.12C27.3498 92.69 28.48 94.04 29.48 95.65C27.93 95.34 26.4296 94.81 25.8496 93.61C25.3996 92.68 24.4997 92.16 24.1997 91.26C23.7997 90.09 23.0698 89.12 22.5498 88.03C22.0198 86.92 21.8299 85.7 21.9199 84.44C23.5799 84.86 24.2898 85.36 26.1098 87.39C26.1598 87.1 26.2 86.84 26.25 86.56C26.82 86.9 26.9596 87.52 27.3296 87.98C27.7596 88.52 28.0097 89.14 28.6997 89.53C29.2797 89.85 29.2898 90.7 29.3198 91.38C29.7698 91.47 29.5896 90.96 29.9096 90.84C30.5696 91.75 30.8497 92.81 30.6997 93.9C30.5597 94.93 30.9798 95.64 31.6098 96.35C32.3098 97.14 33.1098 97.89 33.0298 99.16C32.1198 97.93 31.2298 96.7 30.2998 95.49C29.1198 93.94 28.14 92.24 26.75 90.85C26.67 90.82 26.53 90.75 26.5 90.77C26.37 90.9 26.4598 91.01 26.5698 91.1L26.5898 91.12ZM26.4897 90.44C26.4297 90.35 26.3695 90.25 26.3095 90.16C26.2595 90.21 26.1599 90.27 26.1699 90.3C26.2099 90.4 26.2696 90.49 26.3296 90.58C26.3796 90.54 26.4297 90.49 26.4897 90.44Z" fill="#FC7D44"/>
<path d="M25.4095 21.14C25.5995 20.21 24.8295 19.14 25.5795 18.65C26.7795 17.86 28.2596 17.68 29.7196 17.83C30.7296 17.94 31.7398 18.2499 32.3798 19.0399C34.2198 21.2999 36.4393 21.1999 38.8593 20.2799C40.1993 19.7699 40.2202 19.77 40.5302 21.2C40.9902 23.26 41.4195 25.32 41.8895 27.37C41.9795 27.75 42.0295 28.07 41.6395 28.3C39.8795 29.3 38.1599 30.4 36.0399 30.51C34.9499 30.57 34.0098 30.26 33.1698 29.57C31.2398 27.98 29.1199 26.9 26.4999 27.34C25.8799 27.44 25.8697 27.03 25.8397 26.63C25.6897 24.77 25.5495 22.9 25.4095 21.17V21.14ZM26.3998 20.14C26.5598 22.01 26.7697 23.75 26.8397 25.5C26.8697 26.26 27.1595 26.4099 27.8495 26.4099C30.0795 26.4299 32.0699 27.13 33.7499 28.62C34.6399 29.41 35.6697 29.7 36.8397 29.56C38.1897 29.4 39.2995 28.7299 40.3895 27.9699C40.8895 27.6199 40.9997 27.27 40.8397 26.67C40.4597 25.17 40.0995 23.66 39.8895 22.13C39.7495 21.05 39.4101 20.96 38.4501 21.31C36.1001 22.15 33.8899 22.12 31.9799 20.09C30.8599 18.89 29.3096 18.57 27.6796 18.76C26.7996 18.86 26.0895 19.13 26.3895 20.13L26.3998 20.14Z" fill="#269BCD"/>
<path d="M28.6799 42.78C28.7699 42.11 28.7901 41.64 28.9001 41.19C29.0101 40.72 29.1899 40.24 29.7399 40.14C30.2699 40.04 30.6599 40.36 30.9499 40.75C32.0899 42.32 32.3998 44.14 32.0798 45.98C31.4498 49.57 31.7498 49.12 28.8698 47.58C27.3598 46.77 25.9898 45.73 24.8298 44.46C24.4898 44.08 24.1801 43.65 23.9401 43.2C23.5601 42.47 23.5901 41.73 24.1701 41.1C24.7201 40.5 25.4098 40.67 26.0598 40.89C27.0498 41.24 27.7699 42 28.6799 42.79V42.78Z" fill="#2199CC"/>
<path d="M11.46 89.09C8.12998 87.35 6.20986 84.6 5.83986 80.93C5.63986 78.93 5.79982 76.89 5.79982 74.66C8.75982 76.24 10.5601 78.5 11.0401 81.7C11.2501 83.12 11.4999 84.74 10.8599 85.94C10.0999 87.39 10.9097 88.1 11.4497 89.09H11.46ZM8.06984 79.73C7.76984 82.4 8.75988 84.68 10.1099 86.83C10.2199 86.79 10.3297 86.75 10.4497 86.72C9.65973 84.39 8.85984 82.06 8.06984 79.73Z" fill="#229ACC"/>
<path d="M91.8096 22.81C92.6196 25.43 92.4502 25.93 90.1602 27.62C89.1402 28.38 88.0596 29.09 87.3096 30.15C86.9596 30.64 86.6799 30.47 86.3399 30.19C84.8699 28.97 84.6899 27.2599 85.8399 25.7199C86.2699 25.1499 86.6195 24.52 87.0195 23.92C88.4295 21.82 89.7196 21.53 91.8096 22.82H91.7998L91.8096 22.81Z" fill="#FC7C42"/>
<path d="M95.2004 27.55C95.9504 28.22 96.0197 29.05 95.7697 29.96C95.3797 31.33 94.5504 32.45 93.7004 33.56C93.3604 34 92.97 33.98 92.55 33.69C91.37 32.86 90.1001 32.21 88.7101 31.8C87.9301 31.57 87.8102 31.13 88.3302 30.48C89.4302 29.07 90.7401 27.9299 92.4201 27.2799C93.3901 26.8999 94.3599 26.79 95.2199 27.57L95.2004 27.55Z" fill="#2199CC"/>
<path d="M20.6597 16.35C20.6997 15.99 20.2001 15.46 21.0001 15.34C21.4701 15.27 21.2997 14.84 21.3497 14.56C21.5897 13.22 22.27 12.2 23.48 11.55C24.61 10.94 25.84 11.04 26.73 11.79C27.56 12.5 27.9201 13.93 27.5001 15.09C27.0901 16.23 26.2999 16.95 25.0499 17.06C23.6499 17.18 22.2997 16.57 20.8897 16.8V16.82C20.9197 16.6 20.9 16.4 20.65 16.32H20.6597V16.35ZM24.7999 15.97C26.3699 15.95 27.1198 14.89 26.4698 13.64C26.4698 14.83 25.6199 15.31 24.7999 15.97Z" fill="#FC7C42"/>
<path d="M31.1997 105.19C30.7697 106.72 29.9198 106.03 29.0498 105.64C24.7898 103.75 21.4596 100.54 17.8296 97.76C17.4896 97.5 17.2398 97.12 17.5298 96.74C17.8098 96.37 18.2697 96.49 18.6197 96.69C18.9997 96.91 19.33 97.2 19.67 97.48C23.01 100.21 26.54 102.65 30.5 104.43C30.87 104.6 31.1897 104.74 31.1797 105.22V105.2L31.1997 105.19Z" fill="#229ACC"/>
<path d="M32.3197 101.8C32.2597 101.97 32.2098 102.14 32.1498 102.31C31.8198 102.39 31.7897 102.67 31.7397 102.93C28.7197 101.43 25.9897 99.51 23.5297 97.21C23.2697 96.97 23.0395 96.69 22.8095 96.41C22.3095 95.82 22.7097 95.38 23.0697 94.94C23.5397 94.37 23.8699 94.76 24.2499 95.08C26.7099 97.19 29.2899 99.13 32.2099 100.55C32.9399 100.9 32.4498 101.21 32.3798 101.56C32.3498 101.58 32.2997 101.6 32.2997 101.62C32.2997 101.68 32.2995 101.74 32.3095 101.79L32.3197 101.8Z" fill="#229ACC"/>
<path d="M15.2899 77.63C11.5699 77.59 9.44968 75.97 8.75968 72.87C8.58968 72.1 8.61975 71.7 9.58975 72.06C10.3298 72.34 11.1296 72.47 11.8896 72.67C14.5096 73.36 16.3798 75.77 16.3398 78.4C14.5798 76.16 13.2032 74.9467 12.2099 74.76C13.2499 75.73 14.1799 76.59 15.2899 77.63Z" fill="#FC7C42"/>
<path d="M20.3198 96.22C19.1198 94.71 18.0297 93.04 15.4897 92.88C16.7997 93.84 17.8597 94.62 18.9697 95.43C15.8097 96.22 12.5597 93.99 11.6597 90.51C15.7997 90.78 19.0796 91.72 20.3296 96.23L20.3198 96.22Z" fill="#FC7D44"/>
<path d="M61.8802 4H61.89C62.83 3.55 63.3702 2.60003 64.3002 2.09003C66.3402 0.970028 67.9106 1.06999 69.2806 2.54999C69.4906 2.77999 69.6797 3.05002 69.8197 3.33002C70.1197 3.90002 70.19 4.53998 69.68 4.97998C69.2 5.39998 68.7106 4.98002 68.2806 4.71002C66.2506 3.46002 65.1206 3.61998 63.7806 5.34998L63.7904 5.34003C61.6004 6.05003 61.5405 6.01001 61.8705 4.01001L61.8802 4Z" fill="#FC7C42"/>
<path d="M77.8799 29.78C77.8799 28.51 77.8699 27.24 77.8799 25.97C77.8799 25.25 78.34 24.84 79 24.83C79.68 24.81 79.7601 25.41 79.8301 25.93C80.1901 28.38 80.1398 30.84 80.0498 33.31C80.0398 33.67 80.1298 34.42 79.5098 34.19C78.9298 33.97 77.7998 34.53 77.7998 33.24C77.7998 32.09 77.7998 30.94 77.7998 29.78C77.8198 29.78 77.8501 29.78 77.8701 29.78H77.8799Z" fill="#FC7D44"/>
<path d="M33.1097 105.19C33.5097 104.47 34.1996 104.66 34.7796 104.72C36.9896 104.95 38.9392 106.83 39.3992 109.16C38.5092 108.88 37.8096 108.04 36.7596 108.37C36.8796 108.97 37.6494 108.91 37.8494 109.56C36.5494 109.27 35.2994 109.09 34.1194 108.69C32.9894 108.31 32.2297 106.98 32.3597 105.96C32.4197 105.52 32.4594 105.05 33.1194 105.17C33.1394 105.35 32.8596 105.73 33.2996 105.65C34.1496 105.51 34.9695 105.77 35.9695 105.84C35.0595 104.81 34.0294 105.24 33.0994 105.18L33.1097 105.19Z" fill="#FC7D44"/>
<path d="M25.5696 60.72C25.6796 60.09 25.7797 59.47 25.8997 58.84C25.9497 58.54 26.0997 58.29 26.4197 58.27C26.8497 58.25 26.8898 58.61 26.9798 58.92C27.1198 59.44 27.0498 59.95 26.9798 60.46C26.9098 61.04 27.2595 61.26 27.7195 61.36C28.2895 61.48 28.2296 61.03 28.2796 60.68C28.3196 60.4 28.3697 60.03 28.7097 60.09C28.9897 60.14 29.0398 60.5 29.0398 60.8C29.0398 61.35 28.9497 61.84 29.6897 62.12C30.9497 62.6 30.9297 62.66 31.1897 61.29C31.2697 60.89 31.3296 60.42 31.8596 60.5C32.3396 60.57 32.6198 60.92 32.4798 61.47C32.4198 61.7 32.3796 61.94 32.3196 62.17C31.7396 64.42 31.2594 64.67 29.1394 63.78C28.3694 63.46 27.6096 63.12 26.8396 62.77C25.5296 62.17 25.5296 62.17 25.5696 60.72Z" fill="#269BCD"/>
<path d="M83.6899 26.71C83.4099 29.89 84.9808 31.73 87.2808 33.16C87.9708 33.59 87.41 34.34 87.52 34.93C87.63 35.47 87.1298 35.37 86.8198 35.51C85.8598 35.96 84.8798 36.19 83.8198 36C83.1698 35.88 82.5308 35.68 82.2808 35.02C81.2208 32.19 81.6206 29.36 82.1606 26.54C82.2706 26.54 82.37 26.54 82.48 26.55C82.37 27.59 82.2401 28.63 82.1401 29.67C81.9901 31.27 82.0301 32.83 82.6001 34.38C82.9701 35.38 83.67 35.56 84.56 35.56C84.99 35.56 85.12 35.43 84.98 34.99C84.79 34.41 84.73 33.78 85.02 33.24C85.34 32.64 85.2004 32.32 84.7104 31.86C83.4104 30.65 82.9102 28.34 83.6802 26.72L83.6899 26.71Z" fill="#2B9ECE"/>
<path d="M74.5494 29.75C74.5494 28.87 74.5694 28 74.5494 27.12C74.5294 26.34 75.0198 26.07 75.6598 25.97C76.3298 25.87 76.5693 26.36 76.6793 26.89C77.0793 28.81 77.3193 30.74 77.1793 32.7C77.1493 33.07 77.249 33.8 76.609 33.6C75.939 33.39 74.7591 33.97 74.6891 32.61C74.6391 31.66 74.5992 30.7 74.5592 29.74L74.5494 29.75Z" fill="#FC7D44"/>
<path d="M99.2293 34.68C99.2093 34.8 99.1892 35.04 99.1492 35.27C98.7592 37.46 98.6893 37.49 96.9393 36.18C96.2293 35.65 95.4492 35.26 94.6492 34.92C94.0692 34.67 93.7897 34.33 94.3397 33.76C94.6097 33.47 94.8292 33.1299 95.1092 32.8499C95.8192 32.1099 96.5795 31.47 97.7195 31.95C98.7195 32.37 99.26 33.3 99.24 34.68H99.2293Z" fill="#FC7C42"/>
<path d="M70.9794 31.48C70.9994 31.72 71.0201 31.96 71.0301 32.2C71.0301 32.68 71.2993 33.32 70.3993 33.27C69.7393 33.24 68.96 33.5601 68.91 32.3401C68.84 30.4301 68.7196 28.51 68.2196 26.66C68.0096 25.88 68.4997 25.65 69.0497 25.48C69.6597 25.29 70.0296 25.58 70.2196 26.17C70.7596 27.9 70.8094 29.7 70.9794 31.48Z" fill="#FC7D44"/>
<path d="M30 88.42C30.53 88.6 30.6098 89.11 30.7998 89.53C31.7398 91.55 32.7397 93.53 33.9097 95.43C34.3697 96.17 34.9495 96.73 35.7295 97.09C36.9195 97.65 37.6996 98.64 38.5596 99.74C37.9696 100.03 36.8296 99.38 37.0596 100.72C37.0996 100.95 36.5 100.76 36.25 100.59C35.35 99.98 34.7996 99.09 34.5596 98.07C34.3396 97.12 33.8896 96.32 33.3896 95.5C32.0096 93.27 30.98 90.86 30 88.42Z" fill="#2B9ECE"/>
<path d="M74.0199 31.06C74.0199 31.42 74.0199 31.61 74.0199 31.81C73.9999 33.09 73.1906 33.61 71.9506 33.18C71.5606 33.05 71.6203 32.78 71.6303 32.52C71.7103 31.29 71.5403 30.07 71.3803 28.85C71.2803 28.08 71.6904 27.87 72.2904 27.74C72.9304 27.6 73.4501 27.6 73.6801 28.4C73.9601 29.33 73.9301 30.28 74.0101 31.06H74.0199Z" fill="#FC7C42"/>
<path d="M91.8302 22.82C92.1502 22.42 91.7496 22.09 91.7296 21.71C91.6696 20.68 91.8303 19.7699 92.9103 19.3499C93.7603 19.0199 94.5801 19.13 95.2101 19.83C95.8001 20.5 95.9003 21.95 95.3703 22.51C94.6503 23.27 93.7701 23.49 92.7501 23.15C92.4401 23.05 92.2402 22.61 91.8302 22.81L91.84 22.82H91.8302Z" fill="#FD7C41"/>
<path d="M95.2003 27.55L95.2199 27.57C95.6099 27.1 95.12 26.69 95.13 26.23C95.13 25.37 95.2603 24.59 96.1603 24.29C96.9403 24.03 97.7297 24.08 98.3097 24.82C98.8297 25.48 98.9599 26.2 98.4699 26.9C97.9399 27.66 97.1697 27.86 96.2697 27.71C95.9097 27.65 95.6196 27.18 95.1896 27.54L95.2003 27.55Z" fill="#229ACC"/>
<path d="M44.6199 4.84001C44.3099 4.90001 44.01 4.99 43.7 5.02C42.87 5.12 42.21 4.88995 41.91 4.02995C41.61 3.18995 41.78 2.42997 42.49 1.91997C43.21 1.40997 44.0297 1.44998 44.6697 2.05998C45.2797 2.63998 45.5998 3.35998 45.0398 4.17998C44.8898 4.39998 44.7494 4.62997 44.5994 4.85997L44.6199 4.84001Z" fill="#269BCD"/>
<path d="M34.7902 51.7799C34.6102 52.2699 35.0505 52.21 35.2805 52.34C35.5305 52.47 35.8401 52.58 35.6701 52.94C35.5001 53.31 35.1498 53.32 34.8498 53.17C34.4598 52.98 34.1102 52.71 33.7302 52.49C33.5402 52.38 33.3098 52.14 33.1198 52.43C33.0298 52.56 33.0498 52.85 33.1398 52.99C33.3798 53.35 33.6899 53.66 33.9499 54.01C34.1099 54.21 34.4101 54.4 34.1301 54.71C33.9201 54.94 33.6902 54.79 33.4802 54.71C33.4102 54.68 33.33 54.65 33.26 54.61C32.91 54.44 32.5199 53.8099 32.1999 54.4699C31.8599 55.1699 32.6102 55.19 33.0002 55.33C33.3402 55.46 33.8101 55.49 33.6901 55.96C33.5601 56.46 33.0901 56.39 32.6901 56.27C31.1501 55.82 30.8402 54.68 31.9802 53.51C32.2002 53.29 32.28 53.13 32.28 52.82C32.3 51.5 32.7602 51.2099 33.9802 51.6599C34.2302 51.7499 34.4502 52.19 34.7902 51.79L34.7702 51.77L34.7902 51.7799Z" fill="#2B9ECE"/>
<path d="M38.0596 3.19C38.9896 3.19 39.8098 3.96997 39.8398 4.90997C39.8698 5.89997 39.1 6.59998 37.96 6.59998C36.94 6.59998 36.3799 6.02001 36.3799 4.95001C36.3799 3.91001 37.0596 3.2 38.0596 3.19Z" fill="#229ACC"/>
<path d="M51.7398 2.25C51.7498 3.22 50.9291 3.91997 49.8091 3.90997C48.8091 3.89997 48.2198 3.26999 48.2398 2.23999C48.2598 1.22999 48.9692 0.52002 49.9692 0.52002C50.9292 0.52002 51.7298 1.29999 51.7398 2.23999V2.25Z" fill="#229ACC"/>
<path d="M55.3804 35.74C56.0404 35.78 56.4805 36.22 56.5005 36.76C56.5205 37.2 55.8404 37.24 55.4604 37.38C54.1104 37.86 52.8403 38.52 51.5903 39.19C51.2803 39.35 50.9603 39.88 50.5903 39.37C50.2903 38.96 50.0499 38.44 50.6499 38.03C52.2299 37.27 53.8004 36.5 55.3804 35.74Z" fill="#FC7C42"/>
<path d="M78.5299 22.24C76.2899 21.44 74.0195 20.75 71.5895 20.84C71.0495 20.86 71.0493 20.53 71.2193 20.25C71.4693 19.86 71.0996 18.85 71.9996 19.11C74.3296 19.78 76.5792 20.65 78.5192 22.24H78.5299Z" fill="#2B9ECE"/>
<path d="M99.3298 28.61C100.25 28.62 100.87 29.34 100.87 30.36C100.87 31.23 100.17 31.81 99.1697 31.77C98.1797 31.73 97.7795 31.15 97.7995 30.21C97.8195 29.23 98.4198 28.6 99.3298 28.61Z" fill="#FC7D44"/>
<path d="M24.4897 24.59C24.3497 25.37 24.0598 26.09 23.0898 26.17C22.3298 26.24 21.5896 25.3 21.6396 24.34C21.6796 23.51 22.0899 23.01 22.9799 23.04C23.9299 23.07 24.4097 23.6 24.4897 24.58V24.59Z" fill="#FC7D44"/>
<path d="M34.8095 51.8C34.4395 51.21 33.8497 50.76 33.7397 50.01C33.6797 49.56 33.75 49.19 34.25 49.11C34.72 49.04 34.6999 49.41 34.7099 49.74C34.7199 50.17 34.9195 50.55 35.3095 50.69C35.8195 50.87 35.8999 50.29 36.1699 50.06C36.3899 49.87 36.4796 49.36 36.8496 49.59C37.2196 49.81 37.1902 50.26 36.9902 50.66C36.5302 51.56 35.85 52.05 34.79 51.8L34.8095 51.82V51.8Z" fill="#2B9ECE"/>
<path d="M67.5693 26.89C68.0293 28.91 68.3096 30.95 68.3496 33.02C68.3596 33.65 68.5695 33.81 69.1895 33.8C70.5795 33.77 71.9694 33.84 73.3594 33.86C73.3594 33.98 73.3594 34.1 73.3594 34.22C71.8594 34.18 70.3596 34.15 68.8496 34.11C68.4696 34.11 67.99 34.23 68 33.6C68.06 31.33 67.5201 29.13 67.3701 26.88H67.46H67.5498L67.5693 26.89Z" fill="#1F99CB"/>
<path d="M42.8396 110.44C42.7796 111.07 42.6392 111.65 41.8992 111.62C41.2292 111.59 40.92 111.15 40.99 110.48C41.04 109.96 41.0695 109.45 40.7195 108.99C40.5995 108.84 40.4797 108.66 40.7097 108.49C40.9197 108.34 41.1596 108.26 41.3796 108.41C42.1196 108.92 42.7396 109.52 42.8396 110.44Z" fill="#FC7D44"/>
<path d="M50.6492 37.32C50.5392 36.86 50.5694 36.51 51.0994 36.29C52.0394 35.9 52.9497 35.43 53.8797 34.99C54.6697 34.62 54.9795 34.93 54.9295 35.74C53.7795 36.03 52.7498 36.58 51.7098 37.13C51.3798 37.3 51.0692 37.65 50.6492 37.32Z" fill="#FC7D44"/>
<path d="M52.7594 34.68C51.9194 35.43 51.3591 35.57 51.1491 34.25C51.0291 33.46 50.6299 32.75 50.2399 32.06C50.0599 31.75 49.9995 31.43 50.3795 31.26C50.7795 31.07 50.7996 31.46 50.9196 31.69C51.4296 32.75 51.9292 33.82 52.7692 34.68H52.7594Z" fill="#FC7D44"/>
<path d="M20.0598 20.65C20.6598 20.75 21.1099 21.03 21.1199 21.71C21.1199 22.39 20.7798 22.94 20.0998 22.92C19.3998 22.91 19.1499 22.29 19.1199 21.65C19.0899 21.02 19.4598 20.72 20.0598 20.65Z" fill="#FC7D44"/>
<path d="M65.4597 10.3C65.4897 11 65.2394 11.5 64.6394 11.49C63.8494 11.49 63.6496 10.79 63.5896 10.14C63.5396 9.58001 63.7692 9.01998 64.3992 9.04998C65.1592 9.07998 65.3797 9.73998 65.4597 10.3Z" fill="#FC7D44"/>
<path d="M73.3701 34.22C73.3701 34.1 73.3701 33.98 73.3701 33.86C75.7101 33.99 77.9902 34.47 80.2402 35.15C77.9302 34.94 75.6694 34.39 73.3594 34.21L73.3701 34.22Z" fill="#30A0CF"/>
<path d="M34.2301 47.36C34.0101 46.55 33.9898 46.05 34.4098 45.72C34.8998 45.34 35.1997 45.82 35.5197 46.09C35.6497 46.2 35.7803 46.29 35.9503 46.21C36.2703 46.05 36.5395 46.13 36.5695 46.48C36.5995 46.86 36.3502 47.15 36.0402 47.36C35.7302 47.56 35.48 47.38 35.34 47.13C35 46.56 34.6899 46.09 34.2399 47.35L34.2301 47.36Z" fill="#30A0CF"/>
<path d="M66.4603 8.27997C67.0503 8.40997 67.3305 8.82 67.3705 9.37C67.4105 9.91 67.2503 10.47 66.6303 10.52C66.0303 10.57 65.8705 9.99998 65.8305 9.53998C65.7905 9.02998 65.8601 8.50997 66.4701 8.27997H66.4603Z" fill="#FC7D44"/>
<path d="M62.1093 9.65002C62.4293 9.62002 62.7502 9.6 62.9902 9.88C63.4002 10.35 63.4494 10.88 63.1894 11.42C63.0194 11.78 62.6598 11.96 62.2998 11.74C61.7998 11.44 61.6993 10.93 61.8193 10.39C61.8793 10.13 62.0296 9.88 62.1396 9.63L62.1201 9.65002H62.1093Z" fill="#FC7D44"/>
<path d="M53.2095 21.46C52.4995 20.69 51.7698 19.99 52.6998 18.99C54.0098 19.47 53.6795 20.42 53.2095 21.46Z" fill="#FC7D44"/>
<path d="M21.9295 95.18C21.1595 94.7 20.7296 94.26 21.3396 93.52C21.6796 93.11 22.0498 92.81 22.4998 93.31C23.4698 94.38 21.5195 94.3 21.9295 95.18Z" fill="#2099CB"/>
<path d="M72.1396 25.31C71.4596 24.36 71.4795 23.19 71.0195 22.14C72.0695 21.91 72.3495 22.5 72.1895 23.24C72.0295 23.94 72.0396 24.61 72.1396 25.31Z" fill="#30A0CF"/>
<path d="M30.8999 10.36C30.8999 10.65 30.7796 10.82 30.5996 10.89C29.9296 11.17 29.33 11.67 28.54 11.61C28.5 11.61 28.3999 11.38 28.4399 11.34C28.9199 10.74 29.6298 10.46 30.2798 10.11C30.5598 9.95999 30.7999 10.11 30.8999 10.35V10.36Z" fill="#FC7D44"/>
<path d="M74.5195 25.03C74.7995 24.45 75.2197 24.31 75.6797 24.14C76.3997 23.86 77.2596 23.97 77.8496 23.31C78.0096 23.13 78.2895 23.34 78.4795 23.49C78.6895 23.65 78.6298 23.84 78.5098 24.01C78.1398 24.57 78.1698 23.81 78.0098 23.85C76.8698 24.16 75.6698 24.26 74.5098 25.03H74.5195Z" fill="#30A0CF"/>
<path d="M68.13 7.48C68.35 7.6 68.6494 7.12003 68.8194 7.57003C68.3394 7.88003 68.8302 8.11005 68.9102 8.34005C69.0602 8.81005 68.9695 9.19004 68.6495 9.52004C68.4895 9.68004 68.2802 9.67 68.1202 9.54C67.7602 9.24 67.6203 8.86003 67.7403 8.39003C67.8003 8.17003 67.8302 7.95 67.8702 7.73L67.8497 7.74001C68.0797 7.80001 68.1502 7.69001 68.1202 7.49001L68.13 7.48Z" fill="#FC7D44"/>
<path d="M30.3094 12.91C30.7494 13.12 31.4598 12.65 31.4798 13.44C31.4998 13.98 30.9694 13.98 30.5794 13.93C30.0394 13.85 29.1394 14.06 29.0994 13.38C29.0594 12.64 29.9494 13.19 30.3094 12.91Z" fill="#FC7D44"/>
<path d="M21.0298 24.95C20.9898 25.46 20.7697 25.83 20.3297 25.86C19.7797 25.9 19.6099 25.43 19.5699 24.98C19.5399 24.52 19.7798 24.22 20.2798 24.25C20.7698 24.27 20.9501 24.6 21.0201 24.96L21.0298 24.95Z" fill="#FC7D44"/>
<path d="M50.6494 37.32C51.0694 37.65 51.38 37.3 51.71 37.13C52.75 36.59 53.7797 36.03 54.9297 35.74C55.0797 35.74 55.2299 35.74 55.3799 35.74C53.7999 36.5 52.2294 37.27 50.6494 38.03C50.6494 37.79 50.6494 37.56 50.6494 37.32Z" fill="#EDF6FA"/>
<path d="M29.7301 58.16C30.0401 57.75 29.8099 56.93 30.5499 56.77C30.9199 56.69 30.9499 57.06 30.8399 57.36C30.6399 57.9 30.6598 58.64 29.9898 58.82C29.5798 58.93 29.7198 58.47 29.7198 58.15L29.7301 58.16Z" fill="#2B9ECE"/>
<path d="M67.5693 26.89H67.4795H67.3896C66.9896 25.63 66.5897 24.37 66.1797 23.11C67.0997 24.22 67.3193 25.57 67.5693 26.9V26.89Z" fill="#30A0CF"/>
<path d="M16.73 20.64C16.3 20.51 16.0996 20.2 16.0996 19.77C16.0996 19.39 16.3097 19.19 16.6797 19.18C17.1597 19.18 17.4196 19.43 17.3896 19.9C17.3596 20.28 17.14 20.54 16.73 20.63V20.64Z" fill="#FD7C41"/>
<path d="M27.0593 10.31C26.7493 10.35 26.5897 10.17 26.6497 9.98001C26.8397 9.43001 27.0097 8.83001 27.6497 8.61001C27.8397 8.54001 28.0798 8.71002 28.0398 8.93002C27.9098 9.53002 27.5096 9.96002 27.0696 10.3L27.0593 10.31Z" fill="#FC7D44"/>
<path d="M73.8197 24.47C73.3597 24.1 73.2704 23.62 73.0804 23.2C72.9904 23.01 72.7604 22.75 73.0804 22.59C73.3204 22.47 73.63 22.39 73.89 22.54C74.28 22.77 74.05 23.04 73.85 23.2C73.31 23.62 74.1404 23.97 73.8304 24.46L73.8197 24.47Z" fill="#30A0CF"/>
<path d="M31.77 56.93C31.87 57.16 31.9296 57.23 31.9296 57.31C31.9496 57.95 31.93 58.58 31.25 58.91C31.2 58.94 30.9897 58.82 30.9897 58.77C30.9597 58.06 31.21 57.47 31.77 56.93Z" fill="#269BCD"/>
<path d="M20.8895 16.82C20.6295 17.02 20.7796 17.77 20.1596 17.45C19.8296 17.28 19.5098 16.87 19.6298 16.47C19.8298 15.76 20.3498 16.71 20.6698 16.35L20.6596 16.3401C20.4196 16.6701 20.5996 16.7901 20.9096 16.8401V16.82H20.8895Z" fill="#FC7D44"/>
<path d="M31.1899 105.2C31.4899 105.12 31.9 104.65 32.04 105.2C32.14 105.58 31.8899 106.1 31.6899 106.49C31.6299 106.61 31.24 106.39 31.21 106.13C31.17 105.82 31.21 105.5 31.21 105.19L31.1997 105.21L31.1899 105.2Z" fill="#30A0CF"/>
<path d="M29.2997 16.09C29.0097 15.86 28.3795 16.03 28.3495 15.42C28.3295 15.11 28.6595 15.11 28.8895 15.13C29.2395 15.17 29.6299 15.22 29.7299 15.65C29.7999 15.94 29.6397 16.1 29.2997 16.09Z" fill="#FC7D44"/>
<path d="M46.49 31.59C46.47 31.88 46.6097 32.22 46.1697 32.1C45.8797 32.02 45.4996 31.98 45.5896 31.52C45.6196 31.34 45.4592 30.98 45.8992 31.1C46.1992 31.18 46.56 31.22 46.49 31.59Z" fill="#FC7D44"/>
<path d="M22.3297 19.96C22.6297 20.03 22.8198 20.19 22.7798 20.53C22.7398 20.86 22.5198 21.04 22.2198 20.99C21.8998 20.94 21.8099 20.66 21.8399 20.35C21.8699 20.07 22.0397 19.94 22.3297 19.95V19.96Z" fill="#FC7D44"/>
<path d="M33.0596 101.5C33.5996 101.72 33.8296 102.14 34.0596 102.67C33.0696 102.73 33.1096 102.06 33.0596 101.5Z" fill="#E4F2F8"/>
<path d="M31.7397 102.93C31.7897 102.67 31.8199 102.39 32.1499 102.31C32.3599 102.49 32.91 102.49 32.71 102.88C32.56 103.17 32.0797 103.09 31.7397 102.93Z" fill="#E4F2F8"/>
<path d="M32.3197 101.8C32.3197 101.74 32.2994 101.68 32.3094 101.63C32.3094 101.61 32.3595 101.59 32.3895 101.57C32.3695 101.65 32.3497 101.73 32.3197 101.8Z" fill="#E4F2F8"/>
<path d="M2.59961 63.44C5.81961 64.58 9.03986 65.71 12.3599 66.89C10.9799 67.25 4.25961 64.95 2.59961 63.44Z" fill="#E4F2F8"/>
<path d="M3.19971 65.64C3.28971 65.72 3.48959 65.79 3.32959 65.94C3.17959 66.08 3.09977 65.88 3.00977 65.8C3.06977 65.75 3.13971 65.7 3.19971 65.64Z" fill="#FEFEFE"/>
<path d="M3.00977 65.79C2.98977 65.69 2.97996 65.59 2.95996 65.5C3.03996 65.55 3.11971 65.59 3.19971 65.64C3.13971 65.69 3.06977 65.74 3.00977 65.8V65.79Z" fill="#FEFEFE"/>
<path d="M44.1896 35.76C44.3696 35.93 44.5504 36.07 44.7004 36.25C45.6904 37.39 46.6701 38.55 47.6701 39.69C48.0701 40.15 48.1304 40.49 47.4904 40.75C47.2304 40.86 46.9999 41.01 46.7599 41.16C45.6199 41.88 44.6034 41.7133 43.7101 40.66C43.4501 40.36 43.1904 40.06 42.9504 39.74C42.4904 39.11 41.3896 38.46 41.6496 37.91C42.0396 37.1 43.08 36.59 43.84 35.96C43.93 35.89 44.0398 35.85 44.1798 35.77L44.1896 35.76Z" fill="#FAFCFD"/>
<path d="M40.5403 40.54C41.2403 40.67 41.7602 41.21 41.7102 41.78C41.6502 42.4 41.0498 42.88 40.3098 42.93L40.3303 42.95C40.4603 42.68 40.2796 42.47 40.1096 42.35C39.4696 41.9 39.8003 41.46 40.0803 41.01L40.0598 41.02C40.2498 41.04 40.3496 40.96 40.3196 40.76L40.3001 40.78C40.4901 40.8 40.6401 40.78 40.5501 40.52V40.54H40.5403Z" fill="#EDF6FA"/>
<path d="M38.6203 40.76C38.7903 41.36 38.8404 41.85 38.2004 42.31C37.7004 42.66 37.4598 42.7 37.0598 42.22C36.6998 41.78 36.5498 41.43 37.0998 41.06C37.4898 40.79 37.7798 40.25 38.3898 40.54V40.52C38.3598 40.7 38.3701 40.87 38.6301 40.77L38.6096 40.75L38.6203 40.76Z" fill="#EDF6FA"/>
<path d="M40.31 42.92C39.5 44.33 39.0705 44.49 38.3305 43.66C38.0405 43.33 37.7702 43.02 38.3002 42.74C38.7202 42.52 39.0199 41.58 39.6899 42.45C39.8499 42.66 39.9997 42.91 40.3197 42.94L40.31 42.92Z" fill="#EDF6FA"/>
<path d="M38.3896 40.54C38.3196 39.75 38.9897 39.27 39.4697 39.23C40.0797 39.19 40.4103 39.9 40.5303 40.54L40.54 40.52C40.35 40.5 40.26 40.58 40.29 40.78L40.3096 40.76C40.1096 40.74 39.9998 40.79 40.0498 41.02L40.0693 41.01C39.5193 41.31 39.0394 41.17 38.6094 40.77L38.6299 40.79C38.6299 40.61 38.6001 40.48 38.3701 40.54V40.56L38.3896 40.54Z" fill="#EDF6FA"/>
<path d="M79.2098 16.43C77.8798 15.79 76.5494 15.16 75.2294 14.51C75.1294 14.46 75.0395 14.23 75.0595 14.1C75.2195 13.2 75.6598 12.46 76.3798 11.89C77.0398 11.37 77.6596 11.64 78.2596 12.01C79.1096 12.53 79.9302 13.09 80.7802 13.61C81.2402 13.89 81.2398 14.12 80.8798 14.52C80.4598 14.99 80.1394 15.56 79.7694 16.07C79.6394 16.25 79.5498 16.53 79.2098 16.43Z" fill="#FAFCFD"/>
<path d="M87.9104 13.53C87.8204 13.64 87.7304 13.78 87.6204 13.87C86.0104 15.3 84.3504 16.67 83.4104 18.68C83.3204 18.88 83.14 19 82.93 18.88C82.73 18.76 82.7401 18.56 82.8401 18.36C83.2601 17.54 83.7196 16.75 84.3596 16.09C85.2296 15.21 86.11 14.35 87.01 13.51C87.24 13.29 87.5697 12.97 87.8997 13.53H87.9104Z" fill="#E4F2F8"/>
<path d="M81.24 17.5C81.13 17.43 80.9698 17.39 80.9598 17.31C80.9298 17.17 80.9601 16.99 81.0301 16.88C82.2601 15.04 83.7797 13.49 85.5897 12.21C85.7497 12.09 85.9399 12 86.1199 12.19C86.3099 12.39 86.1893 12.58 86.0193 12.69C84.2093 13.91 82.7693 15.48 81.5193 17.25C81.4593 17.34 81.3498 17.4 81.2498 17.49L81.24 17.5Z" fill="#EDF6FA"/>
<path d="M78.2499 10.65C78.1099 10.58 77.9599 10.56 77.9199 10.48C77.8799 10.4 77.8899 10.22 77.9599 10.16C78.7199 9.40999 79.4501 8.63004 80.3701 8.08004C80.4401 8.04004 80.6099 8.08004 80.6699 8.15004C80.7299 8.22004 80.7697 8.41003 80.7197 8.45003C79.9097 9.19003 79.0799 9.92004 78.2499 10.65Z" fill="#EDF6FA"/>
<path d="M83.9907 10.97C83.8307 11.43 83.42 11.72 83.06 11.98C82.63 12.29 82.3303 13.32 81.8003 12.83C81.3903 12.45 82.3006 11.94 82.6606 11.51C82.8806 11.24 83.1707 11.02 83.4507 10.79C83.6807 10.6 83.8807 10.63 83.9907 10.97Z" fill="#E4F2F8"/>
<path d="M82.0298 9.45001C82.0298 9.45001 82.2396 9.52998 82.2496 9.59998C82.2696 9.73998 82.2492 9.93002 82.1792 10.02C81.6692 10.56 81.1389 11.09 80.6089 11.61C80.4889 11.73 80.3397 11.8 80.1997 11.67C80.1297 11.6 80.0892 11.46 80.0992 11.36C80.1092 11.09 81.7196 9.49002 82.0396 9.46002L82.0298 9.45001Z" fill="#E4F2F8"/>
<path d="M82.25 20.42C81.51 20.69 81.1798 20.13 80.7998 19.7C81.5198 19.47 81.9 19.91 82.25 20.42Z" fill="#FEFEFE"/>
<path d="M57.9898 26.18C57.1298 26.48 56.269 26.81 55.399 27.08C55.169 27.15 54.7993 27.3 54.7193 26.89C54.6593 26.59 54.979 26.54 55.189 26.47C55.719 26.3 56.2598 26.16 56.7798 25.98C59.1998 25.13 59.2097 25.12 60.1197 27.47C60.7997 29.21 61.469 30.95 61.939 32.76C62.029 33.12 62.1696 33.47 61.7896 33.72C60.8196 34.37 59.7397 34.77 58.6197 35.05C58.4997 35.08 58.2595 35 58.2095 34.9C58.0895 34.67 58.2793 34.54 58.4693 34.47C59.0993 34.24 59.7394 34.02 60.3794 33.8C60.9994 33.58 61.2591 33.21 61.0591 32.52C60.4891 30.57 59.8193 28.67 58.9693 26.82C58.7693 26.4 58.5491 26.03 57.9791 26.17L57.9898 26.18Z" fill="#EDF6FA"/>
<path d="M55.6399 32.32C54.9299 32.13 54.1196 32.1 53.8596 31.3C53.6396 30.64 54.1496 30.21 54.5696 29.79C54.5996 29.76 54.6304 29.74 54.6604 29.71C54.8604 29.54 55.1202 29.43 55.2502 29.72C55.6002 30.51 55.9499 31.3 56.1799 32.13C56.2599 32.4 55.8299 32.31 55.6399 32.31V32.32Z" fill="#EDF6FA"/>
<path d="M55.0498 25.62C57.0998 24.66 59.16 23.71 61.21 22.75C59.41 24.22 57.2502 24.96 55.2002 25.93C55.1502 25.82 55.0998 25.72 55.0498 25.61V25.62Z" fill="#E4F2F8"/>
<path d="M13.3797 24.22C13.2697 24.55 13.0195 24.75 12.7595 24.93C11.8995 25.51 11.0896 26.11 10.8396 27.22C10.7496 27.6 10.4895 28.02 9.98952 27.76C9.56952 27.54 9.73967 27.11 9.89967 26.81C10.5297 25.64 11.3498 24.64 12.5398 24C12.8798 23.82 13.2097 23.72 13.3797 24.22Z" fill="#EDF6FA"/>
<path d="M44.3697 27.51C44.6197 27.84 44.8398 28.07 44.9898 28.33C45.1298 28.58 45.5494 28.7 45.3794 29.09C45.3494 29.16 45.1689 29.21 45.0689 29.2C44.6989 29.17 44.379 28.99 44.229 28.64C44.099 28.32 44.0297 27.97 44.3697 27.51Z" fill="#FAFCFD"/>
<path d="M52.0596 26.19V24.06C52.9496 24.56 52.9696 24.86 52.0596 26.19Z" fill="#FAFCFD"/>
<path d="M15.5498 36.74C14.4198 38.02 12.9799 38.74 11.4199 39.25C12.4399 37.82 13.8098 36.96 15.5498 36.74Z" fill="#EDF6FA"/>
<path d="M61.8803 4C61.5503 5.99 61.6102 6.03002 63.8002 5.33002C63.6302 5.97002 63.3999 6.20003 62.7299 6.34003C62.2099 6.45003 61.7 6.44002 61.35 5.96002C61.03 5.52002 61.1205 5.06 61.3705 4.63C61.5005 4.4 61.7101 4.21001 61.8901 4.01001L61.8803 4Z" fill="#FEFEFE"/>
<path d="M68.1294 7.47998C68.1494 7.68998 68.0889 7.79998 67.8589 7.72998C67.8189 7.50998 68.0094 7.52998 68.1294 7.47998Z" fill="#FEFEFE"/>
<path d="M15.55 84.89C15.42 84.78 15.3599 84.59 15.4699 84.51C15.6299 84.39 15.6502 84.64 15.7502 84.72C15.6802 84.78 15.62 84.84 15.55 84.89Z" fill="#FEFEFE"/>
<path d="M63.4905 20.01C61.5305 20 60.1599 18.77 60.1799 17.03C60.1899 15.26 61.5304 13.86 63.2004 13.87C65.3404 13.88 66.6801 15.1 66.6301 16.99C66.5801 18.83 65.3502 20.02 63.5002 20.01H63.4905ZM62.6604 14.9C61.6804 15.11 61.4096 15.78 61.1096 16.4C60.9996 16.62 61.02 16.91 61.26 17.01C61.62 17.18 61.5496 16.83 61.6496 16.64C61.9396 16.1 62.2601 15.58 62.6701 14.9H62.6604Z" fill="#FAFCFD"/>
<path d="M48.54 110.8L48.5098 110.48C48.5898 110.52 48.6798 110.57 48.7598 110.61C48.6898 110.67 48.61 110.74 48.54 110.8Z" fill="#FEFEFE"/>
<path d="M26.4897 90.43C26.4297 90.48 26.3796 90.53 26.3296 90.57C26.2696 90.48 26.1999 90.39 26.1699 90.29C26.1699 90.26 26.2596 90.2 26.3096 90.15C26.3696 90.24 26.4297 90.33 26.4897 90.43Z" fill="#FEFEFE"/>
<path d="M26.5897 91.12C26.4697 91.03 26.3899 90.92 26.5199 90.79C26.5499 90.76 26.6799 90.84 26.7699 90.87C26.7099 90.95 26.6595 91.04 26.5995 91.12H26.5897Z" fill="#FEFEFE"/>
<path d="M26.4 20.13C26.1 19.13 26.81 18.86 27.69 18.76C29.32 18.57 30.8698 18.9 31.9898 20.09C33.8898 22.12 36.1 22.15 38.46 21.31C39.42 20.97 39.7595 21.05 39.8995 22.13C40.0995 23.66 40.4697 25.17 40.8497 26.67C40.9997 27.27 40.8995 27.61 40.3995 27.97C39.3095 28.73 38.1997 29.4 36.8497 29.56C35.6797 29.7 34.6498 29.41 33.7598 28.62C32.0798 27.13 30.0899 26.42 27.8599 26.41C27.1699 26.41 26.8897 26.26 26.8497 25.5C26.7697 23.75 26.5697 22.01 26.4097 20.14L26.4 20.13ZM31.4297 24.72C32.5697 25.12 32.56 24.41 32.44 23.65C32.4 23.36 32.25 23.08 32.15 22.8C32.79 21.43 32.4396 20.7 30.8096 20.01C30.4596 21.09 30.84 21.91 31.69 22.58C31.47 22.56 31.2398 22.54 31.0098 22.52C30.9698 22.5 30.9199 22.48 30.8799 22.46C30.8999 22.5 30.92 22.54 30.94 22.59C30.85 23.36 30.8598 24.11 31.4498 24.73C30.5398 24.91 30.9598 25.63 31.0298 26.04C31.1598 26.84 31.9498 26.77 32.4898 26.96C33.0098 25.74 32.08 25.31 31.44 24.72H31.4297ZM33.5899 26.16C34.2399 26.2 34.4298 25.98 34.5298 25.26C34.6798 24.18 33.7197 24.27 33.3497 23.77C33.6497 23.53 34.2999 24.12 34.3799 23.22C34.4899 22.06 33.6798 21.98 32.9698 21.7C32.7298 22.48 32.8599 23.17 33.3599 23.79C32.2899 24.5 32.9699 25.22 33.3599 25.94C32.3999 26.69 32.8098 27.58 34.4698 28.35C34.6898 27.42 34.5796 26.62 33.5796 26.17L33.5899 26.16ZM36.4795 28.04C36.2595 27.55 36.8594 26.64 35.6094 26.64C34.6494 26.64 34.8894 27.21 34.8594 27.73C34.8194 28.48 34.8997 29.07 35.8897 29.07C36.7597 29.07 36.3595 28.45 36.4795 28.04ZM36.7295 29.19C37.6895 28.68 38.9503 29.03 38.5303 27.63C38.4003 27.18 38.7797 26.14 37.5997 26.45C35.7897 26.92 37.3495 28.15 36.7295 29.19ZM30.2198 20.84C30.5098 19.68 29.9596 19.33 29.0796 19.24C28.7196 19.21 28.5497 19.34 28.6397 19.71C28.8297 20.48 28.5897 21.55 29.9097 21.54C30.6897 21.54 30.1498 20.96 30.2198 20.84ZM36.75 25.24C36.96 25.42 36.3094 26.29 37.3194 26.13C37.7194 26.07 38.4397 26.15 38.1797 25.38C38.0097 24.9 38.66 23.98 37.5 23.97C36.69 23.97 36.63 24.47 36.75 25.24ZM36.25 25.34C36.09 25.01 36.6397 24.24 35.5997 24.23C34.8397 24.23 34.7596 24.59 34.8096 25.19C34.8596 25.71 34.6396 26.35 35.5596 26.35C36.2796 26.35 36.3203 25.95 36.2403 25.34H36.25ZM30.4498 23.94C30.4498 23.45 30.51 22.97 30.44 22.51C30.32 21.76 29.6099 21.78 29.1299 21.8C28.5399 21.82 28.97 22.34 28.94 22.63C28.84 23.71 29.54 23.9 30.46 23.94H30.4498ZM27.1397 22.67C27.0797 23.17 27.1798 23.59 28.0098 23.56C28.6798 23.54 28.6001 23.16 28.5401 22.78C28.4601 22.29 28.7001 21.61 27.7701 21.59C26.9401 21.57 27.1497 22.09 27.1397 22.68V22.67ZM28.7398 25.02C28.6398 24.72 28.92 23.97 27.96 23.96C27.41 23.96 27.2596 24.18 27.3296 24.67C27.4096 25.2 27.1497 25.9 28.1397 25.9C28.6897 25.9 28.86 25.74 28.73 25.03L28.7398 25.02ZM29.0796 24.91C29.0596 25.63 29.3098 26.17 30.2198 26.17C30.6298 26.17 30.6699 26.01 30.6099 25.66C30.4899 25.02 30.6399 24.26 29.6099 24.21C29.0399 24.18 29.0396 24.46 29.0796 24.91ZM28.3199 20.2C28.1599 19.88 28.5896 19.22 27.8096 19.25C27.2596 19.27 26.7997 19.44 26.9097 20.19C26.9897 20.74 27.0098 21.18 27.7798 21.15C28.5698 21.11 28.2499 20.6 28.3199 20.2ZM39.7696 25.86C39.2396 26.02 38.6994 26.1 38.8594 26.77C38.9694 27.21 38.5799 27.97 39.3399 27.98C39.7199 27.98 40.3599 27.64 40.2999 26.98C40.2599 26.55 40.2798 26.03 39.7598 25.86H39.7696ZM38.5303 24.47C38.8603 24.72 38.2099 25.61 39.0899 25.64C39.5899 25.65 40.0399 25.35 39.7999 24.73C39.6399 24.3 39.9495 23.55 39.1895 23.5C38.7095 23.46 38.2196 23.69 38.5196 24.48L38.5303 24.47ZM36.21 23.06C36.29 22.49 36.02 22.32 35.46 22.31C34.78 22.29 34.8099 22.67 34.7999 23.14C34.7999 23.63 34.9298 23.87 35.4698 23.85C35.9998 23.83 36.3202 23.67 36.2002 23.07L36.21 23.06ZM37.92 22.94C37.86 22.47 37.8996 21.99 37.2696 22.15C36.8496 22.25 36.3501 22.31 36.5401 22.94C36.6201 23.22 36.4699 23.77 37.0499 23.65C37.4599 23.57 38.09 23.61 37.92 22.94ZM38.9698 21.69C38.5998 21.86 37.9995 21.8 38.2295 22.41C38.3395 22.68 38.0801 23.37 38.7901 23.15C39.1001 23.06 39.75 23.15 39.5 22.5C39.39 22.22 39.58 21.61 38.96 21.69H38.9698Z" fill="#E4F2F8"/>
<path d="M8.07 79.73C8.86 82.06 9.65988 84.39 10.4499 86.72C10.3399 86.76 10.23 86.8 10.11 86.83C8.76004 84.68 7.77 82.4 8.07 79.73Z" fill="#FEFEFE"/>
<path d="M24.8096 15.96C25.6296 15.3 26.48 14.81 26.48 13.63C27.14 14.88 26.3796 15.94 24.8096 15.96Z" fill="#EDF6FA"/>
<path d="M20.8999 16.83C20.5899 16.78 20.4099 16.66 20.6499 16.33C20.8999 16.41 20.9199 16.61 20.8999 16.83Z" fill="#FEFEFE"/>
<path d="M33.1098 105.19C34.0398 105.24 35.0694 104.82 35.9794 105.85C34.9794 105.78 34.1595 105.52 33.3095 105.66C32.8695 105.73 33.1498 105.36 33.1298 105.18L33.1098 105.2V105.19Z" fill="#FAFCFD"/>
<path d="M40.2996 40.78C40.2696 40.58 40.3596 40.5 40.5496 40.52C40.6296 40.77 40.4796 40.79 40.2996 40.78Z" fill="#229ACC"/>
<path d="M40.0595 41.02C39.9995 40.79 40.1192 40.74 40.3192 40.76C40.3492 40.96 40.2495 41.03 40.0595 41.02Z" fill="#229ACC"/>
<path d="M38.3803 40.52C38.6003 40.47 38.6401 40.6 38.6401 40.77C38.3801 40.87 38.3703 40.7 38.3803 40.52Z" fill="#229ACC"/>
<path d="M62.6601 14.89C62.2601 15.57 61.9296 16.09 61.6396 16.63C61.5396 16.82 61.5999 17.17 61.2499 17C61.0199 16.89 60.9895 16.61 61.0995 16.39C61.3995 15.77 61.6694 15.1 62.6494 14.89H62.6601Z" fill="#269BCD"/>
<path d="M36.4798 28.04C36.3698 28.45 36.77 29.07 35.89 29.07C34.91 29.07 34.8197 28.49 34.8597 27.73C34.8897 27.21 34.6397 26.65 35.6097 26.64C36.8597 26.64 36.2598 27.54 36.4798 28.04Z" fill="#30A0CF"/>
<path d="M36.7202 29.19C37.3402 28.15 35.7803 26.92 37.5903 26.45C38.7703 26.14 38.39 27.18 38.52 27.63C38.93 29.02 37.6802 28.68 36.7202 29.19Z" fill="#269BCD"/>
<path d="M31.6797 22.58C30.8297 21.91 30.4598 21.08 30.7998 20.01C32.4398 20.71 32.7796 21.44 32.1396 22.8H32.1597C32.0797 22.56 31.9397 22.41 31.6597 22.56H31.6699L31.6797 22.58Z" fill="#229ACC"/>
<path d="M30.2098 20.84C30.1398 20.96 30.6797 21.54 29.8997 21.54C28.5797 21.54 28.8197 20.48 28.6297 19.71C28.5397 19.34 28.7096 19.2 29.0696 19.24C29.9496 19.32 30.4998 19.68 30.2098 20.84Z" fill="#269BCD"/>
<path d="M33.3495 23.76C33.7195 24.26 34.6796 24.17 34.5296 25.25C34.4296 25.97 34.2397 26.19 33.5897 26.15V26.17C33.6897 25.92 33.5095 25.92 33.3495 25.92H33.3597C32.9697 25.21 32.2897 24.49 33.3597 23.78H33.3495V23.76Z" fill="#30A0CF"/>
<path d="M36.7398 25.24C36.6198 24.47 36.6798 23.96 37.4898 23.97C38.6498 23.98 37.9995 24.9 38.1695 25.38C38.4295 26.15 37.7091 26.07 37.3091 26.13C36.2991 26.29 36.9498 25.41 36.7398 25.24Z" fill="#269BCD"/>
<path d="M36.2495 25.34C36.3295 25.96 36.2889 26.35 35.5689 26.35C34.6489 26.35 34.8689 25.71 34.8189 25.19C34.7589 24.59 34.8489 24.23 35.6089 24.23C36.6489 24.23 36.0993 25.01 36.2593 25.34H36.2495Z" fill="#2B9ECE"/>
<path d="M30.4495 23.95C29.5395 23.92 28.8295 23.73 28.9295 22.64C28.9595 22.35 28.5295 21.83 29.1195 21.81C29.6095 21.79 30.3195 21.77 30.4295 22.52C30.4995 22.98 30.4398 23.46 30.4398 23.95H30.4495Z" fill="#269BCD"/>
<path d="M32.1499 22.8C32.2499 23.08 32.4 23.36 32.44 23.65C32.55 24.41 32.5597 25.12 31.4297 24.72H31.44C30.86 24.11 30.8497 23.36 30.9297 22.59L31 22.52C31.22 22.54 31.4499 22.56 31.6699 22.58L31.6597 22.57C31.7397 22.82 31.8497 23.02 32.1597 22.82H32.1397L32.1499 22.8Z" fill="#269BCD"/>
<path d="M31.4299 24.72C32.0599 25.31 33.0001 25.74 32.4801 26.96C31.9401 26.77 31.1602 26.84 31.0202 26.04C30.9502 25.63 30.5201 24.9 31.4401 24.73H31.4299V24.72Z" fill="#30A0CF"/>
<path d="M33.5898 26.16C34.5798 26.6 34.6899 27.41 34.4799 28.34C32.8199 27.57 32.4096 26.69 33.3696 25.93H33.3598C33.2598 26.2 33.4598 26.17 33.6098 26.18V26.16H33.5898Z" fill="#2B9ECE"/>
<path d="M27.1301 22.68C27.1301 22.09 26.93 21.57 27.76 21.59C28.69 21.61 28.45 22.29 28.53 22.78C28.6 23.16 28.6702 23.54 28.0002 23.56C27.1702 23.59 27.0701 23.17 27.1301 22.67V22.68Z" fill="#2199CC"/>
<path d="M28.7398 25.03C28.8698 25.74 28.6899 25.9 28.1499 25.9C27.1599 25.9 27.4099 25.21 27.3399 24.67C27.2699 24.18 27.4098 23.95 27.9698 23.96C28.9298 23.96 28.66 24.72 28.75 25.02L28.7398 25.03Z" fill="#269BCD"/>
<path d="M29.0794 24.93C29.0394 24.48 29.0397 24.2 29.6097 24.23C30.6397 24.28 30.4897 25.04 30.6097 25.68C30.6797 26.03 30.6296 26.19 30.2196 26.19C29.3096 26.19 29.0694 25.65 29.0794 24.93Z" fill="#269BCD"/>
<path d="M28.3196 20.22C28.2496 20.61 28.5696 21.13 27.7796 21.17C27.0096 21.21 26.9895 20.76 26.9095 20.21C26.7995 19.46 27.2594 19.29 27.8094 19.27C28.5794 19.24 28.1596 19.9 28.3196 20.22Z" fill="#269BCD"/>
<path d="M39.7698 25.87C40.2798 26.05 40.2598 26.57 40.3098 26.99C40.3698 27.65 39.7299 28 39.3499 27.99C38.5899 27.98 38.9704 27.21 38.8704 26.78C38.7104 26.1 39.2505 26.03 39.7805 25.87H39.7698Z" fill="#229ACC"/>
<path d="M33.3601 23.78C32.8501 23.17 32.73 22.48 32.97 21.69C33.69 21.97 34.4901 22.06 34.3801 23.21C34.3001 24.11 33.6498 23.52 33.3498 23.76L33.3601 23.77V23.78Z" fill="#1F99CB"/>
<path d="M38.5304 24.48C38.2304 23.69 38.7203 23.46 39.2003 23.5C39.9503 23.56 39.6397 24.3 39.8097 24.73C40.0497 25.36 39.5897 25.66 39.0997 25.64C38.2097 25.61 38.8702 24.72 38.5402 24.47L38.5304 24.48Z" fill="#2099CB"/>
<path d="M36.2002 23.07C36.3202 23.67 35.9997 23.83 35.4697 23.85C34.9297 23.88 34.7898 23.64 34.7998 23.14C34.7998 22.67 34.78 22.29 35.46 22.31C36.02 22.33 36.29 22.49 36.21 23.06L36.2002 23.07Z" fill="#269BCD"/>
<path d="M37.9097 22.95C38.0897 23.62 37.4496 23.58 37.0396 23.66C36.4596 23.78 36.6098 23.23 36.5298 22.95C36.3398 22.32 36.8393 22.26 37.2593 22.16C37.8893 22.01 37.8497 22.48 37.9097 22.95Z" fill="#30A0CF"/>
<path d="M38.9603 21.7C39.5803 21.62 39.3903 22.23 39.5003 22.51C39.7403 23.15 39.1004 23.07 38.7904 23.16C38.0804 23.38 38.3298 22.69 38.2298 22.42C37.9898 21.81 38.5901 21.87 38.9701 21.7H38.9603Z" fill="#2B9ECE"/>
<path d="M30.9399 22.59C30.9399 22.59 30.8999 22.51 30.8799 22.46C30.9199 22.48 30.97 22.5 31.02 22.51L30.9497 22.58L30.9399 22.59Z" fill="#269BCD"/>
<path d="M32.1699 22.81C31.8599 23.01 31.7499 22.81 31.6699 22.56C31.9499 22.41 32.0799 22.56 32.1699 22.81Z" fill="#E4F2F8"/>
<path d="M33.5996 26.17C33.4396 26.16 33.2496 26.19 33.3496 25.92C33.5096 25.92 33.6896 25.92 33.5996 26.17Z" fill="#E4F2F8"/>
</svg>
